<svg width="103" height="44" viewBox="0 0 103 44" fill="none" xmlns="http://www.w3.org/2000/svg">
<path d="M17 30L11.48 13.2H14.24L18.32 25.8L22.28 13.2H24.92L28.88 25.8L32.96 13.2H35.72L30.2 30H27.56L23.6 17.4L19.64 30H17ZM38.5953 30V13.2H50.4753V15.72H41.2353V20.04H48.5553V22.56H41.2353V27.48H50.7153V30H38.5953ZM54.2047 30V13.2H60.9247C62.3967 13.2 63.6047 13.632 64.5487 14.496C65.4927 15.36 65.9647 16.408 65.9647 17.64C65.9647 18.632 65.6207 19.504 64.9327 20.256C64.6607 20.56 64.3247 20.808 63.9247 21C64.4687 21.208 64.9487 21.512 65.3647 21.912C66.3247 22.744 66.8047 23.8 66.8047 25.08C66.8047 26.424 66.2767 27.584 65.2207 28.56C64.1807 29.52 62.8687 30 61.2847 30H54.2047ZM56.8447 27.72H61.2847C62.1327 27.72 62.8207 27.456 63.3487 26.928C63.8927 26.4 64.1647 25.744 64.1647 24.96C64.1647 24.176 63.8927 23.52 63.3487 22.992C62.8207 22.464 62.1327 22.2 61.2847 22.2H56.8447V27.72ZM56.8447 20.04H60.9247C61.6447 20.04 62.2207 19.832 62.6527 19.416C63.1007 18.984 63.3247 18.432 63.3247 17.76C63.3247 17.088 63.1007 16.544 62.6527 16.128C62.2207 15.696 61.6447 15.48 60.9247 15.48H56.8447V20.04ZM70.5172 30V13.2H73.1572V30H70.5172ZM77.9469 30V13.2H80.5869V21.36L88.1469 13.2H91.5069L85.0269 20.16L91.9869 30H88.7469L83.2269 22.08L80.5869 24.96V30H77.9469Z" fill="#2E73E3"/>
<path d="M89 1H102V14M1 30V43H14" stroke="#2E73E3"/>
</svg>
